<?xml version="1.0" encoding="UTF-8"?>
<svg id="_图层_1" data-name="图层 1" xmlns="http://www.w3.org/2000/svg" viewBox="0 0 240 240">
  <defs>
    <style>
      .cls-1 {
        fill: #222428;
      }
    </style>
  </defs>
  <path class="cls-1" d="M137.07,97.91c-.12-5.54-1.1-11.02-2.93-16.44-.1-.3-.42-.46-.72-.36-.12.04-.22.11-.29.21-1.06,1.46-1.62,2.26-1.69,2.39-.46.82-1.34.88-2.66.18-.12-.07-.27-.03-.34.09-.02.04-.03.08-.03.12-.09,4.18-.14,9.88-.14,17.13,0,3.81.83,7.89,2.52,12.23,4.15,11.31,9.61,22.02,16.38,32.11.19.29.58.36.86.17.02-.01.03-.02.05-.04,3.61-3,7.68-5.49,12.2-7.48.33-.14.57-.43.66-.77l1.75-6.38c.24-.88,1.01-1.53,1.93-1.6l9.03-.79c.3-.03.54-.25.58-.54l4.22-27.79c.11-.72-.39-1.39-1.11-1.49-.53-.08-1.05.17-1.32.63l-2.31,4.01c-.1.18-.33.24-.51.13-.11-.06-.18-.18-.18-.31-.34-7.69-4.84-11.15-10.2-16.62-.3-.31-.67-.53-1.09-.65l-.53-.16c-.32-.1-.51-.44-.41-.76.03-.09.07-.17.13-.23.07-.08.15-.17.24-.27.19-.19.18-.5,0-.69-.03-.03-.07-.06-.11-.08l-1.58-.91c-.57-.34-.76-1.07-.43-1.64.06-.11.15-.21.24-.29,1.13-1,2.27-1.07,3.41-.2.26.19,5.78,4.27,16.59,12.25.19.14.47.1.61-.09.04-.06.07-.12.08-.19l3.85-25.37c.21-1.32,1.44-2.22,2.76-2.02l.46.06c1.36.21,2.29,1.47,2.08,2.83,0,0,0,0,0,0l-4.33,28.51c-.04.3.07.6.31.79,6.99,5.39,14.51,11.2,22.56,17.42,1.56,1.21.13,3.12-1.2,3.8-1.58.14-3.79-2-5.36-2.69-.25-.11-.55,0-.67.25l-3.4,7.01c-.11.24-.4.34-.64.22-.12-.06-.2-.15-.24-.28-.13-.28-1.15-3-3.05-8.16-1.68-4.56-4.72-8.29-9.1-11.21-.2-.13-.46-.08-.59.11-.03.05-.06.11-.07.17l-3.61,23.8c-.04.25.13.49.39.53.03,0,.06,0,.09,0l25.5-1.21,24-1.11c.45-.02.83.34.85.79,0,.15-.03.29-.1.42-5.07,9.12-6.42,14.83-9.95,27.1-1.77,6.17-4.69,11.57-9.88,17.06-6.7,7.09-13.89,13.26-21.58,18.51-3.75,2.57-7.87,3.45-12.2,3.77-.18.01-7.38.95-21.6,2.8-5.43.7-11.14,1.07-17.15,1.1-28.81.15-57.69.11-86.62-.11-.97,0-1.64-.24-2.03-.69l-.84-3.66c-.08-.36.14-.71.5-.8.01,0,.02,0,.04,0l4.19-.74c.24-.05.39-.27.34-.51-.03-.17-.16-.3-.32-.34l-5.77-1.19c-.92-.19-1.64-.93-1.8-1.85l-.82-4.65c-.17-.95-.93-1.69-1.89-1.81-2.09-.27-3.15-1.03-3.17-2.29l-.3-2.79c-.04-.33-.24-.62-.53-.77-11.93-5.94-18.58-9.19-19.92-9.77-3.3-1.41-4.03-5.66-2.66-8.72.24-.54.31-1.14.21-1.72l-1.85-10.31c-.08-.45-.44-.8-.9-.87l-1.36-.21c-.33-.05-.57-.34-.56-.67l.24-7.68c0-.25-.02-.5-.07-.75l-2.69-12.73c-.07-.32.13-.63.45-.7.04,0,.08-.01.13-.01,6.16-.02,14.14.02,23.94.11,1.53.01,2.83-.48,3.92-1.49,9.95-9.22,17.17-20.69,21.66-34.42.21-.66,0-1.38-.53-1.83l-2.92-2.43c-.24-.2-.6-.17-.8.07-.02.02-.04.05-.06.08l-2.77,4.8c-.26.43-.81.58-1.25.32-.2-.12-.34-.3-.41-.52-2.2-7.49-3.3-13.97-9.14-19.09-.81-.71-.91-1.93-.24-2.76l.08-.1c.63-.82,1.8-.97,2.62-.35l19.51,14.64c.15.11.35.08.46-.07.04-.06.07-.13.06-.2v-10.73c0-1.32,1.07-2.38,2.38-2.38.07,0,.14,0,.22,0l.35.03c1.39.13,2.44,1.29,2.44,2.68v14.7c0,.35.17.69.46.9l24.69,18.17c.89.66,1.18,1.86.68,2.86l-.02.03c-.5.91-1.63,1.24-2.54.75,0,0-.02,0-.03-.01l-7.57-4.29c-.26-.14-.59-.05-.73.21-.02.03-.03.07-.04.1l-3.59,11.97c-.01.11-.11.19-.22.18s-.19-.11-.18-.22h0c-.33-4.37-1.19-8.16-2.59-11.36-.17-.39-.57-.63-.99-.59l-1.03.09c-.8.07-1.56-.3-2-.97l-3.72-5.77c-.07-.11-.22-.14-.33-.06-.07.04-.1.12-.1.2v34.11c0,.36.29.66.65.67,4.17.08,9.23-1.04,11.43,3.74.51,1.12.8,2.47.87,4.05,2.03,1.82,4.55,3.35,7.56,4.58.48.19.87.56,1.1,1.04l.27.54c.08.18.29.25.47.16.06-.03.11-.07.14-.12l2.52-3.83c10.03-15.81,17.23-32.78,21.61-50.91,1.47-6.08,2.07-11.28-.36-16.69-.08-.17-.28-.25-.45-.17-.08.04-.14.1-.17.18l-3.79,9.43c-.02.07-.1.11-.17.08-.05-.02-.09-.06-.1-.11-.95-5.16-1.49-8.49-1.64-9.98-.21-2.19-1.42-3.69-3.62-4.49-.3-.11-.63-.02-.84.23l-1.64,1.95c-.16.19-.45.21-.64.05-.04-.03-.07-.07-.09-.11-3.16-5.39-4.16-7.93-9.44-10.43-1.01-.48-1.5-1.65-1.13-2.7v-.05c.36-.97,1.43-1.46,2.4-1.11.02,0,.04.02.06.02l26.34,10.58c.29.11.62-.03.74-.31.03-.07.04-.14.04-.21v-19.93c0-1.57,1.27-2.85,2.84-2.85.06,0,.12,0,.18,0h.05c1.57.11,2.79,1.4,2.8,2.97l.07,22.27c0,.32.2.61.5.72l26.11,10.28c1.12.44,1.72,1.68,1.37,2.84l-.06.22c-.28,1.19-1.47,1.93-2.66,1.65-.05-.01-.1-.02-.14-.04l-8.11-2.5c-.34-.11-.72.03-.91.34-1.57,2.49-3.28,5.76-5.13,9.83-.97,2.12-.91,4.75-1.71,7.21ZM104.34,128.06l-9.71,17.4c-.1.19-.03.43.16.53.06.03.12.05.18.05h25.99c.32,0,.57-.25.58-.57l.19-18.12c.06-14.5.1-28.99.12-43.46,0-.81-.36-1.45-1.08-1.92-.17-.11-.39-.07-.5.1-.03.04-.05.09-.06.14-3.09,15.95-8.38,31.24-15.87,45.85ZM40.87,121.69c1.17,0,3.66.01,7.49.01,5.29,0,7.57,2.92,10.45,6.86.2.27.52.44.85.45l3.85.13c.34.02.63-.25.65-.6,0-.01,0-.02,0-.03v-37.28c0-.17-.03-.34-.09-.51-.32-.81-.95-1.6-1.88-2.36-.22-.17-.53-.13-.7.08-.03.04-.05.07-.07.12-3.72,9.32-8.61,18-14.67,26.03-1.35,1.78-3.84,4.52-6.1,6.45-.15.13-.18.36-.05.51.07.08.17.13.28.13ZM127.71,115.62v29.83c0,.32.26.58.59.58h14.95c.23,0,.43-.18.43-.42,0-.08-.02-.16-.06-.23-5.6-9.6-10.74-19.56-15.44-29.87-.05-.13-.2-.18-.33-.13-.09.04-.15.13-.15.23ZM22.33,138.66c.18,0,.32-.14.32-.32v-11.03c0-.23-.19-.41-.41-.41h-6.44c-.1,0-.19.08-.19.18,0,.01,0,.02,0,.03l1.99,11.29c.03.15.16.26.31.26h4.42ZM33.85,127.21c0-.18-.15-.33-.33-.33l-5.96.04c-.18,0-.33.15-.33.33h0s.08,11.1.08,11.1c0,.18.15.33.33.33h0l5.96-.04c.18,0,.33-.15.33-.33l-.08-11.1ZM45.29,127.38c0-.25-.21-.44-.45-.44l-6,.09c-.25,0-.44.21-.44.45h0l.17,10.93c0,.25.21.44.45.44l6-.09c.25,0,.44-.21.44-.45l-.17-10.93ZM50.52,138.8h12.72c.17,0,.31-.14.31-.31h0v-3.73c0-.15-.11-.27-.26-.28l-7.18-.48c-.42-.03-.78-.28-.96-.65-1.3-2.68-2.92-4.7-4.88-6.08-.13-.09-.31-.07-.4.06-.04.05-.05.11-.05.17v10.59c0,.39.32.7.7.7ZM218.63,138.78c.15,0,.29-.1.33-.25l1.7-6.25c.05-.18-.07-.37-.25-.41-.03,0-.06-.01-.09-.01l-10.48.35c-.16,0-.29.12-.32.27l-1.22,5.89c-.04.18.08.37.26.41.03,0,.05,0,.08,0h9.99ZM199.19,132.75c-.17,0-.31.12-.34.29l-.95,5.26c-.03.19.09.37.28.41.02,0,.04,0,.07,0h5.34c.17,0,.31-.12.34-.29l.96-5.26c.03-.19-.09-.37-.28-.41-.02,0-.04,0-.07,0h-5.35ZM194.81,133.67c.04-.21-.1-.41-.3-.45-.02,0-.05,0-.07,0h-5.74c-.19,0-.35.13-.38.31l-.85,4.72c-.04.21.1.41.3.45.02,0,.05,0,.07,0h5.74c.19,0,.35-.13.38-.31l.85-4.72ZM181.11,133.77c-.64.03-1.28.06-1.91.09-.42.02-.77.34-.84.76l-.52,3.42c-.05.31.16.6.47.66.03,0,.06,0,.09,0,1.12,0,2.08,0,2.9-.04.64-.03,1.27-.06,1.89-.09.42-.02.77-.34.84-.76l.52-3.42c.05-.31-.16-.6-.47-.65-.03,0-.06,0-.09,0-1.12,0-2.08,0-2.89.04ZM166.15,138.28c-.03.18.09.35.28.38.02,0,.03,0,.05,0h6c.16,0,.3-.12.32-.28l.58-3.8c.03-.18-.09-.35-.28-.38-.02,0-.03,0-.05,0h-6c-.16,0-.3.12-.32.28l-.58,3.8ZM77.57,138.19l-1.14-3.01c-.12-.31-.42-.52-.76-.52h-5.66c-.29,0-.53.24-.53.53h0v2.77c0,.45.36.81.81.81h6.88c.24,0,.43-.2.43-.43,0-.05,0-.1-.03-.15ZM24.56,156.66l-.94-12c-.02-.3-.28-.53-.59-.51,0,0,0,0,0,0l-2.01.17c-.58.05-1.03.21-1.01.36,0,0,0,0,0,0l.98,12.53c.01.15.49.24,1.06.2,0,0,0,0,0,0l2-.16c.3-.02.53-.28.51-.59,0,0,0,0,0,0ZM45.75,144.79c0-.27-.22-.49-.49-.49l-15.35.03c-.27,0-.49.22-.49.49h0s.02,12.11.02,12.11c0,.27.22.49.49.49l15.35-.03c.27,0,.49-.22.49-.49h0s-.02-12.11-.02-12.11ZM173.36,144.6c0-.25-.2-.46-.46-.46h-11.18c-.25,0-.46.2-.46.46h0v12.43c0,.25.2.46.46.46h11.18c.25,0,.46-.2.46-.46h0v-12.43ZM191.83,144.57c0-.23-.18-.41-.41-.42l-12.51-.04c-.23,0-.41.18-.42.41l-.04,12.51c0,.23.18.41.41.42l12.51.04c.23,0,.41-.18.42-.41h0s.04-12.51.04-12.51ZM216.18,144.22h-18.6c-.35,0-.64.29-.64.64v11.98c0,.36.29.65.64.65h14.41c.37,0,.71-.2.89-.53,1.77-3.15,3.05-7.19,3.82-12.11.05-.3-.16-.58-.45-.63-.03,0-.05,0-.08,0ZM63.79,144.8c0-.23-.19-.41-.42-.41h0l-12.11.04c-.23,0-.41.19-.41.42l.04,12.11c0,.23.19.41.42.41h0l12.11-.04c.23,0,.41-.19.41-.42h0s-.04-12.11-.04-12.11ZM81,144.9c0-.29-.23-.52-.52-.52h0l-11.02-.02c-.29,0-.52.23-.52.52h0s-.02,12.05-.02,12.05c0,.29.23.52.52.52h0l11.02.02c.29,0,.52-.23.52-.52l.02-12.05ZM104.44,163.18c0-.26-.21-.48-.48-.47h0l-17.6.06c-.26,0-.48.21-.47.48h0s.05,13.5.05,13.5c0,.26.21.48.48.47l17.6-.06c.26,0,.48-.21.47-.48l-.05-13.5ZM156.44,163.09c0-.21-.17-.38-.38-.38h0l-11.95.02c-.21,0-.38.17-.38.38l.02,13.79c0,.21.17.38.38.38h0l11.95-.02c.21,0,.38-.17.38-.38l-.02-13.79ZM173.29,162.93c0-.17-.13-.3-.3-.3h-11.43c-.17,0-.3.13-.3.3v14c0,.17.13.3.3.3h11.43c.17,0,.3-.13.3-.3h0v-14ZM191.75,162.98c0-.2-.16-.36-.36-.36h-12.67c-.2,0-.36.16-.36.36h0v13.83c0,.2.16.36.36.36h12.67c.2,0,.36-.16.36-.36h0v-13.83ZM197.41,175.34c3.31-2.98,6.2-5.55,8.69-7.7,1.6-1.39,2.93-2.85,3.98-4.39.11-.18.07-.41-.1-.53-.06-.04-.13-.06-.21-.06h-12.29c-.34,0-.61.27-.61.61v11.83c0,.18.14.32.32.32.08,0,.16-.03.23-.09ZM119.25,177.19h1.45c.33.01.6-.26.6-.59h0v-13.4c0-.23-.19-.41-.42-.41h-3.12c-.22,0-.4.17-.4.38-.04,2.12-.64,5.15-2.88,6.21-1.47-.19-2.46-2.3-2.98-6.35-.02-.17-.18-.29-.35-.27h0s-1.2.15-1.2.15c-.18.03-.31.18-.31.36v13.33c0,.3.25.55.55.55h0l9.07.04ZM138.8,163.1c0-.21-.17-.37-.37-.37h0l-11.87.02c-.21,0-.37.17-.37.37h0s.02,13.73.02,13.73c0,.21.17.37.37.37h0l11.87-.02c.21,0,.37-.17.37-.37h0s-.02-13.73-.02-13.73ZM73.14,166.73c-.05,1.21-1.14,1.55-3.27.99-.39-.1-.79.13-.9.52-.02.06-.02.13-.02.19v7.98c0,.42.34.77.77.77h10.01c.54,0,.98-.44.98-.98l.02-7.33c0-.42-.34-.77-.76-.77-.08,0-.17.01-.25.04-.44.21-1.74.26-3.89.16-.31-.01-.5-.11-.58-.29-.08-.19-.06-.42.06-.69,1.93-.24,3.63-.16,5.08.25.12.03.24-.03.27-.15,0-.02,0-.04,0-.06v-3.72c0-.22-.18-.39-.39-.39h-9.95c-.22,0-.4.18-.4.4v2.38c0,.25.19.45.43.48l2.77.23ZM36.61,167.62l6.7,3.7c.13.07.27.11.41.12,3.55.29,7.51,1.08,8.2,4.8.06.34.35.6.7.61l10.75.38c.18,0,.34-.14.34-.32,0,0,0,0,0-.01v-6.81c0-.16-.12-.3-.29-.33-8.94-1.39-17.84-2.23-26.71-2.5-.1-.01-.19.06-.21.16,0,.08.03.15.1.19ZM57.64,183.43c6.16,1.02,9.95,1.57,11.39,1.66,4.35.25,11.42.4,21.23.46,35.79.21,65.55.18,89.28-.09,2.31-.03,4.46-.86,6.46-2.5.09-.08.09-.21.02-.29-.04-.04-.09-.07-.14-.07-17.27.04-58.21.07-122.81.09-2.5,0-4.31.13-5.44.38-.1.03-.16.13-.13.23.02.07.07.12.14.13ZM66.7,192.1c0,.39,6.13.75,13.7.8,7.57.05,13.71-.22,13.71-.61h0c0-.39-6.13-.75-13.7-.8-7.57-.05-13.71.22-13.71.61h0Z"/>
  <path class="cls-1" d="M38.46,181.57l3.14,3.78c.25.3.36.69.29,1.07l-.27,1.46c-.04.23-.02.47.05.7l3.06,8.95-16.26.24c-.3,0-.56-.22-.58-.52-.53-6.44-1.71-13.18-3.53-20.21-.06-.24.08-.49.33-.55.04,0,.08-.01.12-.01,3.16-.01,8.5-.26,11.29.98.35.15.64.43.81.79l1.55,3.33Z"/>
</svg>