<?xml version="1.0" encoding="UTF-8"?>
<svg id="_图层_1" data-name="图层 1" xmlns="http://www.w3.org/2000/svg" viewBox="0 0 240 240">
  <defs>
    <style>
      .cls-1 {
        fill: #222428;
      }
    </style>
  </defs>
  <ellipse class="cls-1" cx="65.87" cy="51.23" rx="7.17" ry="6.79" transform="translate(-17.56 52.72) rotate(-38.9)"/>
  <path class="cls-1" d="M142.24,71.16c-.2-.04-1.56-.62-4.07-1.75-5.54-2.49-11.44-3.72-17.69-3.71-.19,0-.35-.16-.35-.36,0-.11.06-.22.15-.29l3.47-2.35c.09-.06.12-.18.06-.27-.01-.02-.03-.04-.05-.05-13.84-9.85-32.29-16.84-49.15-12.12-.22.06-.45-.07-.51-.29,0-.02,0-.03-.01-.05-.17-1.13-.56-2.16-1.15-3.08-.12-.18-.07-.43.12-.54.03-.02.06-.04.1-.05,19.4-5.95,39.55,2.41,55.38,13.64.27.18.61.2.89.05,13.64-7.59,32.51-13.28,47.9-10.09.15.03.24.17.21.31,0,.01,0,.03-.01.04l-1.4,3.47c-.07.18-.26.29-.45.26-13.85-2-29.73,2.5-41.87,8.88-.18.09-.26.31-.17.5.02.05.06.09.1.12l8.7,7.27c.11.09.12.26.03.36-.06.07-.15.1-.24.08Z"/>
  <ellipse class="cls-1" cx="190.06" cy="57.84" rx="11.47" ry="11.69" transform="translate(-8.45 65.72) rotate(-19.2)"/>
  <path class="cls-1" d="M59.3,102.22l2.69,8.76c3.29,8.63,7.77,16.45,11.98,24.54.08.15.02.34-.13.42-.05.03-.11.04-.17.03l-4.02-.43c-.61,0-1-.12-1.19-.39-2.12-3.05-4.2-6.87-6.25-11.46-8.8-17.99-16.9-49.12-3.4-66.54.3-.39.84-.48,1.24-.21l1.44.96c.43.29.57.86.32,1.32-7.21,13.06-6.39,28.92-2.52,43.01Z"/>
  <path class="cls-1" d="M74.25,105.98l3.26-8.92c12.26-24.16,40.27-34.88,64.79-21.45,16.79,9.19,28.25,29.1,24.82,48.65-.07.37-.21.72-.41,1.05-2.86,4.36-6.21,8.11-10.06,11.26-.26.21-.57.34-.9.38-26.07,2.71-51.97,2.55-77.7-.5-.31-.04-.58-.23-.72-.5-4.9-9.39-5.92-19.38-3.06-29.98ZM109.44,88.02c-2.76-2.98-7.6-3-10.81-.03-3.21,2.97-3.56,7.79-.8,10.78,2.76,2.98,7.6,3,10.81.03,3.21-2.97,3.56-7.79.8-10.78Z"/>
  <path class="cls-1" d="M58.94,141.52l-11.63-2.9c-8.63-2.41-31.03-9.64-27.26-22.34,2.94-9.95,21.76-15.62,30.53-17.34.2-.03.39.09.43.29l.75,3.53c.05.24-.1.48-.34.54-6.92,1.63-41.95,11.47-20.65,23.43,6.96,3.91,14.4,6.7,22.31,8.37l16.29,3.35c2.03.38,4.09.7,6.18.95,19.94,2.5,39.95,3.25,60.01,2.26,5.45-.27,11.66-.65,18.65-1.14.66-.04,1.11.46,1.54.43.23-.01.45-.11.64-.29,8.37-7.77,15.86-16.43,22.48-25.97,8.88-12.82,16.32-27.22,15.21-42.51-.09-1.23.84-2.3,2.07-2.39.1,0,.21,0,.31,0h.08c1.36.1,2.43,1.21,2.46,2.57.14,5.61-.33,10.5-1.44,14.65-5.22,19.65-18.6,38.22-32.8,52.45-.1.09-.11.25-.02.35.06.07.16.1.24.07.15-.03.57-.2,1.26-.51.7-.3,1.12-.47,1.27-.5,9.26-1.6,15.4-2.83,18.44-3.7.57-.16,1.17.17,1.33.75.02.05.03.11.03.16l.26,2.08c.1.8-.41,1.55-1.2,1.75-8.04,2.04-16.55,3.41-25.52,4.12-.32.03-.61.15-.84.36-5.73,5.15-8.6,7.73-8.63,7.76-11.1,9.77-23.22,17.96-36.35,24.55-.16.08-.23.28-.14.45.03.05.06.09.11.12,14.34,9.45,34.77,18.69,51.26,10.34,15.81-8,17.79-28.1,14.3-43.56-.04-.18.08-.36.26-.4l4.25-.9c.13-.03.26.05.29.19,0,0,0,0,0,0,4.33,20.59-.13,44.36-22.34,51.05-18.02,5.42-37.8-3.93-52.8-14.25-.3-.2-.69-.23-1.03-.07-10.81,5.18-21.84,8.93-33.86,9.98-.35.03-.66-.23-.69-.58,0-.02,0-.04,0-.05v-2.95c0-.44.33-.8.76-.85,9.74-1.17,19.54-4.15,29.4-8.92.18-.09.25-.31.16-.48-.02-.05-.06-.09-.1-.12-11.46-8.52-21.11-18.59-28.94-30.19-.1-.14-.07-.33.07-.43.07-.05.16-.07.24-.05l4.34.79c.42.08.81.3,1.1.62,9.86,11.19,17.23,18.89,27.85,26.82.3.23.71.26,1.06.09,15.97-7.77,30.18-17.69,42.65-29.76.07-.06.08-.18.02-.25-.06-.07-.17-.08-.24-.02l-2.16,1.65c-.28.21-.61.34-.96.37-30.55,3.16-60.87,1.88-90.97-3.83Z"/>
  <path class="cls-1" d="M74.12,94.58l-2.15,4.55c-.13.27-.38.47-.67.52l-9.48,1.67c-.25.05-.51-.1-.58-.35l-.1-.34-.62-3.26c-.05-.29.14-.56.42-.61,0,0,0,0,0,0l13.19-2.16Z"/>
  <path class="cls-1" d="M168.07,99.56l-2.29-4.71c-.04-.06-.02-.14.04-.17.02-.01.05-.02.08-.02,9.33.77,15.55,1.93,18.64,3.48.4.19.56.67.37,1.08l-.83,1.75c-.14.3-.45.47-.78.43l-14.82-1.55c-.19-.02-.35-.13-.42-.29Z"/>
  <path class="cls-1" d="M195.68,100.36c8.07,2.27,14.76,5.56,20.08,9.86,11.78,9.56-1.72,20.33-10.27,23.7-.51.2-1.08,0-1.35-.47l-1.28-2.22c-.2-.35-.09-.8.26-1.01.02-.01.04-.02.06-.03,4.6-2.13,18.31-9.68,9.88-16.2-5.39-4.17-11.74-7.24-19.05-9.23-.15-.04-.24-.19-.2-.34,0-.01,0-.02,0-.03l1.57-3.89c.05-.12.17-.18.29-.14Z"/>
  <path class="cls-1" d="M69.95,106.06l-1.33,9.49c-.01.11-.12.2-.23.18-.06,0-.11-.04-.15-.09-1.23-1.64-1.97-3.53-2.22-5.68l3.92-3.9Z"/>
  <path class="cls-1" d="M174.54,112.31c.17,2.1-.75,3.97-2.76,5.61-.08.06-.2.05-.26-.03-.02-.03-.04-.06-.04-.1-.05-2.88-.1-4.61-.14-5.21s-.29-2.31-.71-5.16c-.01-.1.06-.2.16-.21.04,0,.08,0,.12.02,2.26,1.28,3.47,2.98,3.64,5.07Z"/>
  <path class="cls-1" d="M60.32,124.43l-4.71,7.8-4-1.06c-.31-.08-.49-.4-.41-.71.02-.06.04-.12.08-.17l6.57-9.86c.11-.16.33-.21.49-.1.06.04.1.09.13.15l1.84,3.95Z"/>
  <ellipse class="cls-1" cx="180.21" cy="129.95" rx="2.42" ry="3.62" transform="translate(-12.6 19.55) rotate(-6)"/>
  <ellipse class="cls-1" cx="195.24" cy="135.21" rx="7.25" ry="6.97" transform="translate(-33.72 72.13) rotate(-19.3)"/>
  <path class="cls-1" d="M46.89,159.38c-.74,8.12,1.55,14.87,6.88,20.24.19.2.22.5.07.74-.75,1.1-1.28,2.34-1.6,3.71-.04.17-.22.28-.39.23-.05-.01-.09-.03-.13-.07-12.67-10.86-11.28-28.89-5.42-42.92l3.76,1.21c.27.09.41.38.32.65-1.79,5.32-2.95,10.72-3.49,16.2Z"/>
  <path class="cls-1" d="M142.94,149.67c-6.92,5.9-15.57,12.35-24.21,15.5-.69.25-1.42.37-2.15.37-12.06-.03-21.46-6.97-28.05-16.43-.11-.16-.07-.38.09-.49.07-.05.16-.07.24-.06,17.83,1.9,35.77,2.07,53.83.53.18-.02.34.12.36.3,0,.11-.03.21-.11.28Z"/>
  <ellipse class="cls-1" cx="63.23" cy="186.6" rx="9.23" ry="9.1" transform="translate(-60.01 32.88) rotate(-20)"/>
</svg>