<?xml version="1.0" encoding="UTF-8"?>
<svg id="_图层_1" data-name="图层 1" xmlns="http://www.w3.org/2000/svg" viewBox="0 0 240 240">
  <defs>
    <style>
      .cls-1 {
        fill: #010000;
      }

      .cls-2 {
        fill: #222428;
      }
    </style>
  </defs>
  <path class="cls-2" d="M147.53,211.57c-5.96,1.72-12.03,2.86-18.19,3.42-24.3,2.27-46.01-3.64-65.13-17.75C15.5,161.3,12.04,89.8,56.5,49.08c13.44-12.31,28.9-19.98,46.39-23.01,32.62-5.65,63.43,4.49,86.05,28.41,18.63,19.68,27.44,45.77,25.51,72.84-2.8,39.29-29.43,72.51-66.92,84.24ZM104.95,49.8l2.02,6.86c.08.28.35.47.64.45l14.67-1.11-.11,4.72c0,.29-.23.54-.53.57l-13.75,1.38c-15.03,3.32-25.81,11.36-35.58,23.4-.08.1-.23.12-.34.05l-3.67-2.44c-.12-.09-.16-.26-.07-.38,8.43-12.11,19.4-20.19,32.92-24.25.48-.14.76-.65.62-1.13l-2.27-8.28c-.14-.51-.66-.81-1.17-.68-.02,0-.03,0-.05.01-17.39,5.63-30.72,15.8-40.01,30.52-5.12,8.12-8.65,16.47-10.57,25.07l-.65,3.38c-.11.6-.69,1-1.3.88-.03,0-.06-.01-.09-.02l-3.01-.83c-.61-.17-.98-.8-.81-1.41,0,0,0,0,0,0l4.29-15.1,6.6-13.53c2.92-4.74,6.13-8.93,9.62-12.58.19-.2.19-.52-.01-.72,0,0,0,0,0,0l-6.82-6.23c-.18-.16-.45-.15-.62.02-3.94,4.01-7.43,8.51-10.48,13.49-3.64,5.78-6.54,11.92-8.7,18.41-3.08,8.59-4.7,17.44-4.88,26.54,0,.36.28.66.64.66,0,0,0,0,.01,0h9.33c.4,0,.75-.27.86-.65l.48-1.77c.26-.91,1.21-1.44,2.12-1.18.63.18,1.1.7,1.22,1.35.37,2.24.56,4.79.56,7.67,0,2.55.61,6.79,1.84,12.74,1.58,7.3,4.23,14.21,7.96,20.71,2.79,5,6.04,9.55,9.76,13.66.07.08.18.09.26.02,0,0,0,0,0,0l7.4-6.62c.13-.11.14-.31.03-.43-3.73-4.33-6.78-9.19-9.13-14.57.97-1.36,1.59-2.86,1.87-4.49,3.68,6.61,8.15,12.56,13.4,17.86,8.53,8.23,18.63,13.51,30.3,15.84,15.12,2.64,29.14-.21,42.04-8.57,5.33-3.35,9.91-7.5,13.75-12.44,3.71-4.66,6.37-9.72,7.97-15.19.06-.2-.05-.41-.25-.47,0,0,0,0-.01,0l-7.89-2.16c-.12-.03-.25.03-.31.13l-4.91,9.06c-4.4,6.34-9.94,11.43-16.63,15.29-10.62,5.49-21.99,7.01-34.09,4.54-8.53-1.88-16.09-5.82-22.69-11.8-5.14-4.96-9.15-10.72-12.03-17.29-.12-.28-.42-.45-.72-.4-3.6.56-5.96,2.01-7.09,4.34l-5.12.12c-.31.01-.59-.18-.69-.48l-2.9-8.02c-2.24-9.13-2.36-18.26-.37-27.41,1.28-5.79,3.34-11.3,6.17-16.52.03-.05.09-.07.14-.04.01,0,.03.02.04.03l2.76,4.3c.07.11.09.24.04.36-2.4,6.36-4.03,12.91-4.9,19.63-.75,7.5-.04,14.63,2.14,21.4.08.26.36.4.63.32,0,0,.02,0,.03,0l7.66-2.89c.19-.07.3-.27.26-.47-1.46-6.68-1.73-13.65-.82-20.89,4.36-20.89,16.78-34.16,37.27-39.82,7.03-1.48,14.06-1.57,21.09-.27.32.06.63-.13.71-.45l3.57-13.03c.07-.26.33-.43.6-.37,5.05.95,9.92,2.65,14.6,5.09,4.47,2.36,8.55,5.09,12.22,8.18.14.12.35.12.49,0l6.9-6.17c.16-.14.18-.39.03-.56,0,0-.02-.02-.02-.02-4.5-4.27-9.65-7.87-15.45-10.81-7.11-3.64-14.55-6.04-22.32-7.2l-14.26-1.38-.24-14.45c0-.3-.25-.53-.55-.53,0,0,0,0-.01,0-22.07.76-41.04,8.62-56.93,23.58-.1.1-.1.25,0,.35,0,0,0,0,0,0l6.63,6.64c.09.09.24.1.34.01,9.54-8.63,23.03-16.4,35.77-18.19.31-.04.6.15.68.45l1.85,6.65ZM191.35,85.2c2.75,5.93,4.78,12.21,6.08,18.84.26,1.12.09,1.63-.49,1.54l-3.8.25c-.3.02-.58-.17-.66-.46l-4.23-13.64c-3.34-8.59-8.12-16.08-14.33-22.49-.19-.19-.5-.2-.69-.02l-6.48,5.79c-.25.21-.27.59-.06.83,0,0,0,.01.01.02,4.48,4.87,8.23,10.56,11.24,17.07,3.22,7.58,5.11,15.55,5.65,23.92.02.3.26.53.56.54l11.01.12h2.92c.53.01.96.44.96.97h0v3.79c0,.39-.32.71-.71.71h-19.37c-.38,0-.69-.31-.69-.68,0,0,0,0,0-.01.28-17.89-5.8-33-18.22-45.35-6.19-5.5-13.08-9.62-20.66-12.34-.27-.09-.55.05-.64.32,0,0,0,.02,0,.03l-2.25,8.23c-.11.38.09.77.46.91,7.25,2.71,13.73,7.02,19.41,12.93,11.02,13.41,14.6,28.83,10.76,46.26-.06.25.09.5.34.57l12.84,3.52c.29.08.47.38.39.67,0,0,0,0,0,.01-1.67,5.95-4.11,11.58-7.32,16.89l-6.42,8.31c-.09.12-.08.3.03.41l6.91,6.57c.12.11.3.1.4-.02,0,0,0,0,.01-.01l7.03-8.72c5.44-8.21,9.16-17.12,11.15-26.72.03-.16.18-.27.34-.25l4.36.46c.19.01.33.18.31.38,0,0,0,.02,0,.03-1.39,8.07-4.09,15.76-8.09,23.06-4.92,8.8-11.21,16.52-18.87,23.16-9.91,8.32-21.21,13.87-33.92,16.66l-3.02.47-.82-4.7c-.05-.3.14-.59.43-.64,13.68-2.8,26.36-9.05,36.45-18.51.33-.3.35-.8.05-1.13-.01-.02-.03-.03-.04-.04l-6.13-5.83c-.32-.3-.82-.31-1.15-.02-14.21,12.45-30.92,17.73-50.11,15.85-13.05-1.94-24.48-7.31-34.27-16.12-.24-.21-.61-.22-.85-.01l-7.13,6.06c-.2.17-.22.47-.05.67,0,.01.02.02.03.03,10.43,9.84,22.64,16.18,36.62,19.04,0,1.79-.27,3.42-.82,4.91-.11.28-.4.44-.69.37-26.7-6.08-45.86-21.54-57.48-46.38-4.02-9.34-6.24-18.99-6.67-28.96,0-.18-.15-.32-.33-.32h-9.54c-.17,0-.31.13-.31.3,0,0,0,0,0,.01.3,12.78,3.38,24.93,9.23,36.43,3.66,7.19,8.17,13.82,13.53,19.89,16.25,18.4,36.57,28.46,60.98,30.2,9.37.44,18.51-.38,27.43-2.47,13.63-3.52,25.78-9.94,36.45-19.27,8.15-7.14,14.81-15.46,19.98-24.95,11.26-19.94,13.38-44.45,7.83-66.43-1.61-6.35-3.97-12.49-7.09-18.43-10.11-19.16-25.11-32.97-45-41.42-9.64-4.09-20.01-6.3-31.11-6.63-.18,0-.33.14-.33.32,0,0,0,0,0,.01v9.33c0,.23.18.42.4.43,29.43,1.27,55.95,17.86,68.29,44.87ZM121.95,163.68c13.14-.59,25.32-7.09,33.12-17.69,6.75-9.17,9.64-20.62,8.06-31.9-.71-5.03-2.29-9.9-4.67-14.38-4.58-8.61-11.92-15.44-20.84-19.38-4.88-2.16-10.12-3.41-15.45-3.68-12.69-.64-25.03,4.3-33.78,13.52-8.85,9.31-13.13,22.07-11.7,34.84,1.45,12.92,8.6,24.52,19.5,31.63,7.64,4.98,16.65,7.44,25.76,7.03Z"/>
  <path class="cls-2" d="M121.76,81.93l-.16,6.96c0,.3-.25.54-.55.55l-2.95.1c-.57-2.26-.7-4.74-.39-7.43.03-.3.27-.54.57-.58,1.59-.19,2.75-.06,3.48.4Z"/>
  <rect class="cls-2" x="100.77" y="86.33" width="3.25" height="7.08" rx="1.1" ry="1.1" transform="translate(-32.1 68.15) rotate(-32.1)"/>
  <path class="cls-2" d="M134.53,91.3l3.02-5.33c.83.25,1.59.63,2.3,1.14.26.19.34.54.19.82l-2.84,5.26c-.16.31-.53.45-.86.32-1.84-.7-2.44-1.43-1.81-2.21Z"/>
  <path class="cls-2" d="M117.5,95.57l3.97-.02c.31,0,.56.25.56.57l.09,21.57c3.84,3.6,8.45,7.12,13.84,10.58l1.48,1.45c.22.22.27.55.13.83-.69,1.35-1.57,2.41-2.64,3.17l-17.49-11.58c-.27-.18-.43-.49-.42-.81l.48-25.76Z"/>
  <path class="cls-2" d="M153.64,102.31l-5.28,3.42c-.26.17-.61.14-.85-.07-.94-.84-1.22-1.59-.85-2.26,4.38-3.71,6.7-4.08,6.98-1.09Z"/>
  <rect class="cls-2" x="88.39" y="99.59" width="2.84" height="7.23" rx="1.42" ry="1.42" transform="translate(-43.89 132.18) rotate(-61.2)"/>
  <rect class="cls-2" x="83.02" y="116.04" width="3.81" height="8.06" rx="1.13" ry="1.13" transform="translate(-35.43 204.58) rotate(-89.8)"/>
  <path class="cls-2" d="M156.83,118.05l1.26.05c.38.02.69.32.7.7l.07,2.37c.02.36-.26.67-.62.68-.01,0-.02,0-.03,0l-7.27.04.12-3.06c.01-.32.26-.57.57-.58l5.19-.21Z"/>
  <rect class="cls-2" x="86.36" y="136.19" width="7.21" height="2.92" rx="1.22" ry="1.22" transform="translate(-57.16 64.19) rotate(-30.3)"/>
  <rect class="cls-1" x="148.58" y="133.91" width="2.94" height="7" rx="1.1" ry="1.1" transform="translate(-41.84 205.05) rotate(-61.9)"/>
  <rect class="cls-2" x="98.85" y="149.15" width="7.39" height="3.13" rx="1.52" ry="1.52" transform="translate(-78.93 167.97) rotate(-61.2)"/>
  <path class="cls-2" d="M134.05,148.3l1.76-1.34c.16-.13.4-.1.52.07,0,.01.02.02.03.04l3.38,5.83c.1.18.04.41-.13.51-.02.01-.04.02-.06.03l-2.07.79c-.17.07-.36,0-.46-.16l-3.05-5.29c-.09-.16-.05-.36.09-.48Z"/>
  <path class="cls-2" d="M121.61,151.49v7.4c0,.32-.26.58-.58.59l-1.46.04-1.04-.03c-.36,0-.64-.3-.64-.65v-6.71c0-.36.29-.65.65-.65,0,0,0,0,.01,0h3.05Z"/>
</svg>