<?xml version="1.0" encoding="UTF-8"?>
<svg id="_图层_1" data-name="图层 1" xmlns="http://www.w3.org/2000/svg" viewBox="0 0 240 240">
  <path d="M49.16,50.42c-.08.09-.12.34-.12.77.12,19.13.15,32.28.09,39.45,0,.42-.35.76-.77.76l-14.4.02c-.38,0-.7-.31-.7-.7l-.07-56.07s.02-.09.07-.14c.02-.02.04-.04.08-.08,0,0,0,0,.02-.01.04-.05.09-.08.13-.08l56.07-.07c.38,0,.7.3.71.68,0,0,0,0,0,.01v14.4c0,.41-.33.75-.74.77-7.17.07-20.33.07-39.45.01-.43,0-.74.09-.93.28Z"/>
  <path d="M206.6,34.35l.08.08s.07.09.07.13l.05,56.21c0,.38-.3.7-.68.71,0,0,0,0-.01,0h-14.43c-.42,0-.76-.34-.77-.76-.07-7.19-.07-20.37.01-39.54,0-.43-.04-.69-.13-.77-.19-.2-.5-.3-.93-.3-19.17.11-32.35.14-39.54.08-.42,0-.76-.35-.76-.77l-.02-14.43c0-.38.31-.7.7-.7,0,0,0,0,.01,0l56.21-.05s.08.03.13.07c.02.02.02.02.02.02Z"/>
  <path d="M120,50.89h4.05c.4,0,.72.32.72.72,0,0,0,0,0,.01v45.67c0,.38.25.71.61.8,8.72,2.33,14.25,7.89,16.58,16.7.1.38.44.64.83.64h46.17c.29,0,.53.22.55.51.02.36.04,1.71.04,4.05s-.01,3.69-.04,4.05c-.02.29-.26.52-.55.52h-46.17c-.39-.01-.73.25-.83.63-2.33,8.8-7.86,14.37-16.58,16.7-.36.1-.62.43-.61.8v45.67c-.01.4-.33.72-.73.72h0c-.28,0-1.62.01-4.05.01s-3.77,0-4.05-.01c-.4,0-.72-.32-.72-.72v-45.67c0-.38-.25-.71-.61-.8-8.72-2.33-14.25-7.89-16.58-16.7-.1-.38-.44-.64-.83-.64h-46.17c-.29,0-.54-.23-.55-.52-.02-.36-.04-1.71-.04-4.05s.01-3.69.04-4.05c.02-.29.27-.51.55-.51h46.17c.39,0,.73-.26.83-.64,2.33-8.8,7.86-14.37,16.58-16.7.36-.1.62-.43.61-.8v-45.67c.01-.4.33-.72.73-.72h4.05ZM130.24,120.15c0-5.63-4.56-10.2-10.2-10.2h0c-5.63,0-10.2,4.56-10.2,10.2s4.56,10.2,10.2,10.2,10.2-4.56,10.2-10.2Z"/>
  <path d="M49.38,189.7c.09.09.34.13.77.12,19.04-.07,32.13-.07,39.27,0,.41.01.74.35.74.77v14.33c0,.38-.31.7-.7.7l-55.82-.06s-.09-.02-.14-.07c-.02-.02-.04-.04-.08-.08,0,0,0,0-.01-.02-.05-.04-.08-.09-.08-.13l.06-55.82c0-.38.31-.7.7-.7h0l14.33.02c.42,0,.76.34.77.76.06,7.14.03,20.23-.08,39.27,0,.42.09.73.28.92Z"/>
  <path d="M190.69,189.59c.09-.08.13-.33.13-.77-.02-19.13.01-32.28.11-39.45.01-.41.35-.74.77-.74l14.39.04c.38,0,.7.31.7.7,0,0,0,0,0,.01l-.2,56.07s-.04.09-.08.13c-.02.02-.04.05-.08.08,0,0,0,0-.01.02-.05.05-.1.08-.14.07l-56.07-.2c-.38,0-.7-.31-.7-.7h0s.06-14.4.06-14.4c0-.41.34-.75.76-.76,7.17-.04,20.33.02,39.45.18.43,0,.74-.09.93-.28Z"/>
</svg>